<svg width="100" height="100" viewBox="0 0 100 100" xmlns="http://www.w3.org/2000/svg">
    <g fill="#FFF" fill-rule="nonzero">
        <path d="M100 0v100H0V0h100zm-7.024 91.19V10.595l-.238.238-82.143 82.143-.238.238h80.714a1.88 1.88 0 0 0 1.905-1.904v-.12zm-3.69-83.928.238-.238H8.81a1.88 1.88 0 0 0-1.905 1.905v80.714l.238-.238L89.286 7.38v-.12z"/>
        <path d="M83.214 50.952c1.072 1.072 1.548 2.381 1.429 3.81-.12 1.428-.833 2.857-2.143 4.167-1.429 1.428-3.095 2.261-4.762 2.261-1.667 0-2.976-.595-4.167-1.785l-3.81-3.81c-2.5-2.5-2.38-6.19.477-8.928 1.429-1.429 2.976-2.143 4.524-2.143s2.5.476 3.452 1.428l.834.834-2.5 2.5-.715-.715c-.476-.476-1.071-.714-1.547-.714s-1.19.238-1.786.833c-.595.596-.952 1.31-.952 1.905s.357 1.31.952 1.905l4.167 4.167c.476.476 1.071.833 1.785.833.715 0 1.429-.357 2.024-.952.595-.596.834-1.072.834-1.667s-.239-1.071-.715-1.548l-.714-.714 2.5-2.5.952.952-.119-.119zM76.548 64.286l-2.858 2.857-2.976-1.667-3.333 3.334 1.667 2.976-2.62 2.619-8.095-15.12 3.096-3.095 15.119 8.096zM66.07 66.429l2.381-2.381-5.119-2.977-.595-.357 3.333 5.834v-.12zM61.786 71.429c1.19 1.19 1.904 2.619 1.785 4.047 0 1.548-.833 3.095-2.261 4.524l-4.643 4.643L45 72.976l4.643-4.643c1.428-1.428 3.095-2.262 4.643-2.262 1.547 0 2.857.715 4.047 1.905l3.453 3.453zM59.88 76.07c0-.595-.238-1.31-.952-1.904l-3.453-3.453c-1.19-1.19-2.5-1.19-3.81 0l-1.547 1.548H50c0 .119 7.262 7.38 7.262 7.38l1.667-1.666c.595-.595.952-1.31.952-1.905zM42.143 43.095v.357s0 .12-.238.12H14.762l-.238-.12v-.357l13.571-23.452s.12-.12.238-.12c.12 0 .238 0 .357.239l13.453 23.333zm-7.857-2.619-7.262-12.5v-.238c-.12 0-7.381 12.5-7.381 12.5v.238H34.286z"/>
    </g>
</svg>
