<svg width="329" height="60" viewBox="0 0 329 60" xmlns="http://www.w3.org/2000/svg">
    <g fill-rule="nonzero" fill="none">
        <path fill="#4E4540" d="M0 0h329v60H0z"/>
        <g fill="#FFF">
            <path d="M6.12 5.86v48.39h317.02V5.86H6.12zM322.39 53.5H6.87V6.61h315.52V53.5z"/>
            <path d="M19.42 29.05c-.6 0-.96.49-.96.96 0 .5.41.9.92.9.54 0 .98-.42.98-.94s-.43-.92-.94-.92zM32.2 23.89c-.37 0-1.05.02-1.66.04-.51.01-.98.03-1.19.03-1.49 0-2.52-.04-3.18-.11-.15 0-.25.11-.25.27 0 .13.07.37.25.37 1.053.12 1.58 1.053 1.58 2.8v5.57c0 1.74-.517 2.663-1.55 2.77h-.03s-.12.02-.18.12c-.05.08-.12.3-.03.45.04.08.12.12.21.12h.03c.81-.1 2.02-.11 2.98-.11.2 0 .65.01 1.15.03.61.02 1.27.04 1.63.04 4.05 0 7.1-2.74 7.1-6.38 0-3.64-2.69-6.01-6.86-6.01zm.28 11.48c-2.71 0-2.8-.18-2.8-1.84v-6.25c0-1.27.03-1.89.12-2.43.3-.03.73-.08 1.84-.08 3.49 0 5.42 2.03 5.42 5.72 0 2.92-1.84 4.88-4.58 4.88zM66.06 23.54l-.05-.07c-.05-.08-.15-.11-.3-.11-.21 0-.32.07-.31.16-.11.48-.12.52-2.86.52h-5.62c-2.66 0-2.67-.05-2.79-.52l-.02-.09-.09-.03c-.11-.03-.41-.08-.52.09l-.05.1.03.06c.05.25.09.59.09.89 0 .48-.02 1.13-.09 1.49l-.02.1.05.07c.05.07.15.1.31.1.03 0 .11 0 .17-.02l.1-.02.02-.09c.18-.71.42-1.14 2.81-1.14h1.88v7.85c0 1.74-.507 2.663-1.52 2.77h-.06c-.18.04-.24.28-.22.44.02.18.14.25.23.25h.04c.78-.1 1.62-.12 2.72-.12.86 0 1.75.05 2.29.11.16 0 .27-.13.27-.33 0-.18-.09-.35-.24-.35-1.047-.08-1.57-1.003-1.57-2.77v-7.85h1.78c2.39 0 2.59.4 2.73 1.08 0 .19.23.19.31.19.21 0 .28-.05.31-.1l.04-.07v-.07c-.05-.21-.05-.65-.05-.94 0-.57.04-1.02.13-1.46l.03-.11.04-.01zM88.89 23.6c-4.2 0-7.13 3.52-7.13 6.67s2.53 6.3 6.78 6.3 7.17-3.53 7.17-6.69c0-3.16-2.55-6.28-6.82-6.28zm.09 12.08c-2.6 0-5.23-2.06-5.23-6.01 0-3.15 1.85-5.18 4.71-5.18 2.61 0 5.25 2.08 5.25 6.03 0 3.14-1.86 5.16-4.73 5.16zM103.78 35.64c-1.02-.08-1.53-1.003-1.53-2.77V27.3c0-1.78.507-2.717 1.52-2.81.16 0 .26-.18.26-.35 0-.07-.02-.13-.05-.18-.05-.07-.12-.11-.24-.11-.51.07-1.4.11-2.26.11-1.09 0-1.93-.02-2.76-.11-.08 0-.16.04-.2.1a.31.31 0 0 0-.05.17c0 .13.07.37.25.37 1.053.12 1.58 1.053 1.58 2.8v5.57c0 1.74-.517 2.663-1.55 2.77h-.03c-.2 0-.25.31-.25.39 0 .2.13.29.28.29.78-.09 1.62-.11 2.73-.11.86 0 1.75.05 2.27.11h.03c.13 0 .27-.09.27-.31 0-.18-.09-.37-.25-.37l-.02.01zM119.32 23.54l-.05-.07c-.05-.08-.15-.11-.29-.11-.21 0-.32.07-.31.16-.11.48-.12.52-2.86.52h-5.62c-2.66 0-2.67-.05-2.79-.52l-.02-.09-.09-.03c-.11-.03-.41-.08-.52.09l-.03.08v.07c.07.25.1.6.1.91 0 .69-.03 1.21-.09 1.49l-.02.09.05.07c.05.07.14.1.31.1.03 0 .12 0 .17-.02l.09-.02.02-.09c.18-.71.41-1.14 2.81-1.14h1.87v7.85c0 1.74-.507 2.663-1.52 2.77h-.06c-.17.04-.24.28-.22.44.02.18.14.25.23.25h.04c.78-.1 1.62-.12 2.72-.12.86 0 1.75.05 2.29.11.16 0 .28-.13.28-.33 0-.18-.09-.35-.24-.35-1.047-.08-1.57-1.003-1.57-2.77v-7.85h1.78c2.39 0 2.58.4 2.73 1.08 0 .19.23.19.31.19.21 0 .28-.05.31-.1l.04-.07v-.07c-.05-.21-.05-.65-.05-.94 0-.57.04-1.02.14-1.46l.03-.11.03-.01zM126.06 29.05c-.6 0-.96.49-.96.96 0 .5.42.9.92.9.54 0 .98-.42.98-.94s-.43-.92-.94-.92z"/>
            <path d="M188.62 24.33c-.06 0-.17-.35.02-.33m0 12.15c-.16.02-.07-.35-.02-.35" stroke="#FFF" stroke-width=".33"/>
            <path d="M260.76 32.57c-.29 0-.33.15-.33.2-.15 1.88-2.08 2.89-3.83 2.89-2.61 0-5.25-2.07-5.25-6.02 0-3.08 1.89-5.16 4.71-5.16 2.82 0 3.99 1.58 4.3 2.95.04.14.22.16.32.16.3 0 .31-.19.31-.23-.02-.62-.16-2.5-.42-2.72-.41-.31-2.28-1.03-4.07-1.03-4.24 0-7.19 3.55-7.19 6.73 0 3.18 2.49 6.25 7.12 6.25 1.91 0 3.29-.34 4.22-1.03.32-.24.45-2.7.45-2.73 0-.12-.09-.25-.35-.25l.01-.01zM273.19 34.07c-.05-.07-.15-.1-.29-.1-.26 0-.31.11-.31.16-.23.96-.27 1.08-3.05 1.08h-1.06c-.75 0-.93 0-.93-2.34V27.3c0-1.78.52-2.717 1.56-2.81.17 0 .24-.21.24-.35 0-.07-.01-.13-.05-.18-.04-.07-.12-.11-.24-.11h-.01c-.52.07-1.39.11-2.28.11-1.05 0-1.91-.02-2.69-.11h-.06c-.1 0-.21.06-.23.22-.01.15.05.37.25.41 1.047.113 1.57 1.047 1.57 2.8v5.57c0 1.72-.533 2.637-1.6 2.75l-.16.02c-.18.03-.24.27-.22.42.01.18.13.26.24.26h.02c1.43-.1 3.59-.11 5.31-.11.8 0 1.49.03 2.04.06.41.02.75.03 1.04.03.35 0 .56-.08.68-.51.14-.48.23-1.26.26-1.55v-.1l-.04-.06.01.01zM288.69 23.86c-.6.08-1.14.11-1.87.11-1.11 0-1.57-.02-2.37-.11-.14 0-.25.1-.26.25-.01.14.06.36.24.4 1.48.17 1.67.28 1.67 2.64v4.45c0 2.49-1.24 3.75-3.68 3.75-1.9 0-3.82-1.26-3.82-4.07v-3.97c0-1.78.52-2.717 1.56-2.81.18 0 .24-.24.24-.36 0-.07-.02-.13-.05-.18-.05-.06-.12-.1-.24-.1-.49.07-1.39.11-2.28.11-1.05 0-1.91-.02-2.74-.11-.09 0-.17.04-.21.11-.04.05-.05.12-.05.19 0 .17.11.35.28.35 1.033.113 1.55 1.047 1.55 2.8v4.34c0 2.9 2.18 4.93 5.29 4.93 3.57 0 5.17-2.41 5.17-4.8v-4.64c0-2.22.06-2.5 1.63-2.64.16 0 .25-.17.25-.34 0-.18-.11-.3-.3-.3h-.01zM308.67 29.05c-.6 0-.96.49-.96.96 0 .5.41.9.92.9.54 0 .98-.42.98-.94s-.43-.92-.94-.92zM51 33.88c-.06-.07-.17-.11-.34-.11-.23 0-.28.1-.28.15-.25 1.11-.3 1.34-3.12 1.34h-.98c-.66 0-.99 0-.99-2.47v-3.62h1.75c1.64 0 1.67.2 1.77.69.04.1.15.16.34.16.14 0 .23-.04.28-.11l.05-.1-.02-.06c-.02-.15-.02-.51-.02-.68 0-.45.04-.86.11-1.11l.03-.09-.07-.07c-.09-.08-.34-.1-.39-.1-.15 0-.21.07-.24.15l-.03.12c-.06.29-.08.39-1.82.39h-1.75v-1.14c0-.9.01-1.8.07-2.32h1.63c2.42 0 2.68.24 2.81.95.05.15.27.17.37.17.11 0 .19-.03.24-.09l.05-.08v-.07c-.03-.14-.03-.52-.03-.69 0-.39.02-.7.12-1.02l.07-.23-.25.02c-1.01.09-2.23.13-3.71.13-2.11 0-3.81-.05-5.07-.13-.12 0-.25.09-.25.28 0 .12.06.38.22.38l.15.02c1.08.127 1.62 1.057 1.62 2.79v5.57c0 1.72-.537 2.637-1.61 2.75l-.13.02c-.2 0-.24.28-.24.38 0 .07.01.13.04.17.04.08.12.12.21.12h.02c1.4-.1 3.38-.11 5.12-.11.8 0 1.55.03 2.15.06.44.02.81.03 1.1.03.35 0 .56-.08.67-.51.12-.4.28-1.28.36-1.73v-.11l-.04-.06.03-.03z"/>
            <g>
                <path d="M157.37 23.36c-.21 0-.32.07-.31.16-.12.48-.13.52-2.86.52h-5.62c-2.66 0-2.67-.05-2.79-.52l-.02-.09-.09-.03c-.12-.03-.41-.08-.52.09l-.05.1.03.06c.05.26.09.59.09.89 0 .71-.03 1.22-.09 1.49l-.02.1.05.07c.05.07.14.1.31.1.03 0 .12 0 .17-.02l.09-.02.02-.09c.18-.71.41-1.14 2.81-1.14h1.88v7.85c0 1.74-.507 2.663-1.52 2.77h-.06c-.17.04-.24.28-.22.43.01.19.14.25.23.25h.04c.77-.1 1.62-.12 2.72-.12.86 0 1.75.05 2.29.11.16 0 .27-.13.27-.33 0-.18-.08-.35-.23-.35-1.053-.08-1.58-1.003-1.58-2.77v-7.85h1.78c2.39 0 2.59.4 2.73 1.08 0 .19.23.19.31.19.21 0 .28-.05.32-.1l.05-.07v-.07c-.05-.21-.05-.64-.05-.94 0-.57.04-1.02.13-1.46l.04-.11-.05-.07c-.05-.08-.15-.11-.29-.11h.01zM186.05 33.97c-.26 0-.31.11-.31.16-.23.96-.27 1.08-3.05 1.08h-1.06c-.75 0-.93 0-.93-2.34V27.3c0-1.78.52-2.717 1.56-2.81.17 0 .24-.21.24-.35 0-.07-.02-.13-.05-.18-.04-.07-.12-.11-.24-.11-.52.07-1.39.11-2.28.11-1.05 0-1.91-.02-2.69-.11h-.06c-.1 0-.21.06-.23.22-.01.15.05.37.25.41 1.047.113 1.57 1.047 1.57 2.8v5.57c0 1.72-.533 2.637-1.6 2.75l-.16.02c-.18.03-.24.27-.22.42.02.18.13.26.24.26h.02c1.44-.1 3.59-.11 5.31-.11.8 0 1.49.03 2.04.06.4.02.75.03 1.04.03.34 0 .55-.08.68-.51.12-.42.21-1.08.26-1.55v-.11l-.04-.06c-.06-.07-.15-.1-.29-.1v.02zM213.07 23.54l-.05-.07c-.05-.08-.15-.11-.3-.11-.21 0-.31.07-.31.16-.12.48-.12.52-2.86.52h-5.62c-2.66 0-2.67-.05-2.79-.52l-.02-.09-.09-.03c-.12-.03-.41-.08-.51.09l-.05.1.03.06c.05.26.08.59.08.89 0 .71-.03 1.22-.08 1.49l-.02.1.05.07c.05.07.14.1.31.1.03 0 .12 0 .18-.02l.09-.02.02-.09c.18-.71.42-1.14 2.81-1.14h1.88v7.85c0 1.74-.507 2.663-1.52 2.77h-.05c-.18.04-.24.28-.23.43.02.19.14.25.24.25h.04c.78-.1 1.62-.12 2.72-.12.86 0 1.75.05 2.29.11.16 0 .27-.13.27-.33 0-.18-.09-.35-.24-.35-1.053-.08-1.58-1.003-1.58-2.77v-7.85h1.79c2.39 0 2.58.4 2.73 1.08 0 .19.23.19.31.19.21 0 .28-.05.31-.1l.04-.07v-.07c-.05-.21-.05-.65-.05-.94 0-.57.05-1.02.13-1.46l.04-.11h.01zM220.7 24.5c.16 0 .26-.18.26-.35 0-.07-.02-.13-.05-.18-.04-.07-.12-.11-.24-.11-.51.07-1.4.11-2.26.11-1.09 0-1.93-.02-2.76-.11-.09 0-.16.04-.21.11-.03.04-.05.1-.05.17 0 .13.07.37.25.37 1.053.12 1.58 1.053 1.58 2.8v5.57c0 1.74-.517 2.663-1.55 2.77h-.03c-.19 0-.25.27-.25.39 0 .07.02.13.05.18.04.07.12.11.23.11.78-.09 1.62-.11 2.72-.11.86 0 1.75.05 2.27.11h.03c.12 0 .27-.09.27-.31 0-.18-.09-.37-.25-.37-1.027-.08-1.54-1.003-1.54-2.77v-5.57c0-1.78.51-2.717 1.53-2.81zM235.19 32.57c-.29 0-.32.15-.32.2-.15 1.88-2.08 2.89-3.83 2.89-2.61 0-5.25-2.07-5.25-6.02 0-3.08 1.89-5.16 4.71-5.16 2.82 0 3.99 1.58 4.29 2.95.04.14.22.16.32.16.3 0 .31-.19.31-.23-.02-.62-.16-2.5-.41-2.72-.41-.31-2.29-1.03-4.07-1.03-4.24 0-7.19 3.55-7.19 6.73 0 3.18 2.49 6.25 7.12 6.25 1.91 0 3.28-.34 4.22-1.03.32-.24.45-2.7.45-2.73 0-.12-.09-.25-.36-.25l.01-.01zM242.92 29.05c-.6 0-.96.49-.96.96 0 .5.41.9.92.9.54 0 .98-.42.98-.94s-.43-.92-.94-.92zM198.01 33.88c-.06-.07-.17-.11-.33-.11-.23 0-.28.1-.28.15-.25 1.11-.31 1.34-3.12 1.34h-.98c-.66 0-.99 0-.99-2.47v-3.62h1.75c1.64 0 1.67.2 1.77.69.04.1.15.16.34.16.14 0 .23-.04.28-.11l.05-.1-.02-.06c-.02-.15-.02-.51-.02-.68 0-.45.04-.86.11-1.11l.02-.09-.07-.07c-.09-.08-.34-.1-.39-.1-.15 0-.21.07-.24.15l-.03.12c-.06.29-.08.39-1.82.39h-1.75v-1.14c0-.9.01-1.8.08-2.32h1.64c2.42 0 2.68.24 2.81.95.05.15.27.17.36.17.11 0 .2-.03.24-.09l.05-.08v-.07c-.03-.14-.03-.52-.03-.69 0-.39.02-.7.12-1.02l.08-.23-.25.02c-1.01.09-2.23.13-3.71.13-2.11 0-3.81-.05-5.07-.13-.12 0-.25.09-.25.28 0 .12.06.38.23.38l.15.02c1.073.127 1.61 1.057 1.61 2.79v5.57c0 1.72-.537 2.637-1.61 2.75l-.13.02c-.2 0-.24.28-.24.38 0 .07.01.13.04.17.04.08.12.12.21.12h.02c1.4-.1 3.38-.11 5.12-.11.8 0 1.55.03 2.15.06.43.02.81.03 1.09.03.35 0 .56-.08.68-.51.12-.4.28-1.28.36-1.73v-.11l-.04-.06.01-.03zM144.72 35.66h-.04c-1.42-.11-1.74-.61-2.6-2.87l-3.43-8.96c-.04-.13-.18-.21-.33-.21-.14 0-.26.07-.33.2l-4.02 8.96c-.91 2.04-1.33 2.77-2.5 2.85-.23 0-.23.37-.23.38 0 .06.01.12.03.16.04.08.12.13.24.13l.21-.02c.58-.07.69-.09 1.66-.09.77 0 1.2.04 1.74.11h.06c.09 0 .17-.05.21-.13.02-.05.04-.11.04-.18 0-.21-.1-.36-.23-.36-.9-.08-1.04-.17-1.04-.42 0-.49.33-1.24.78-2.27l.95-2.15h3.4l.78 2.14.12.3c.29.78.58 1.51.58 1.98 0 .27-.15.31-.88.39l-.26.03c-.23 0-.23.37-.23.38 0 .06 0 .12.03.16.04.08.11.13.2.13h.04c.76-.1 1.67-.12 2.82-.12.82 0 1.57.04 2.15.11.14 0 .24-.09.27-.24.02-.12-.01-.36-.17-.42l-.02.03zm-5.74-5.69h-2.73l1.49-3.39 1.24 3.39zM173.89 24.5c.16 0 .25-.17.25-.34 0-.07 0-.12-.04-.17a.233.233 0 0 0-.21-.13h-.04c-.6.08-1.68.12-2.44.12-1.06 0-1.75-.02-2.54-.11h-.06c-.1 0-.21.06-.23.22-.01.15.05.37.23.41 1.36.16 1.42.17 1.42 2.81v1.7h-6.7v-1.7c0-2.68.06-2.69 1.39-2.81.17 0 .24-.21.24-.35 0-.07-.02-.12-.05-.18-.04-.07-.12-.11-.23-.11-.56.07-1.29.11-2.12.11-.89 0-2.02-.01-2.85-.11h-.06c-.1 0-.21.06-.23.22-.02.15.05.37.23.41l.15.02c1.067.127 1.6 1.057 1.6 2.79v5.57c0 1.72-.533 2.637-1.6 2.75l-.16.02c-.18.03-.24.27-.22.43.01.18.13.24.26.24.82-.1 1.91-.11 2.87-.11.83 0 1.56.04 2.15.11.14 0 .24-.09.26-.24.02-.12 0-.36-.16-.42h-.04c-1.34-.11-1.43-.11-1.43-2.79v-3.02h6.7v3.02c0 2.62-.06 2.63-1.43 2.77-.17.03-.23.27-.22.43.02.18.14.25.23.25h.04c.79-.1 1.48-.12 2.56-.12.75 0 1.84.04 2.42.11h.06c.08 0 .16-.04.2-.11.07-.12.05-.33-.01-.44-.04-.07-.11-.12-.17-.12-1.147-.093-1.72-.943-1.72-2.55v-6.01c0-1.627.57-2.49 1.71-2.59l-.01.02z"/>
            </g>
            <path d="M298.49 28.86c1.1-.54 1.86-1.54 1.86-2.51 0-2.46-3.02-2.46-4.02-2.46-.34 0-.86.02-1.32.04-.39.01-.75.03-.94.03-1.03 0-1.59-.02-2.42-.11-.08 0-.15.04-.2.1a.31.31 0 0 0-.05.17c0 .13.07.37.25.37 1.053.12 1.58 1.053 1.58 2.8v5.57c0 1.74-.517 2.663-1.55 2.77h-.03s-.12.02-.17.12c-.05.08-.12.3-.03.45.05.08.12.12.21.12h.03c.76-.09 1.59-.11 2.71-.11.2 0 .57.01.97.03.48.02 1.02.04 1.36.04 2.94 0 4.76-2.27 4.76-4.38 0-1.52-1.22-2.73-2.99-3.04h-.01zm-3.33-1.57c0-1.32.02-1.99.12-2.51.22-.04.37-.05.61-.05 1.59 0 2.56.12 2.56 1.85 0 1.6-.82 2.19-3.01 2.19-.11 0-.23.09-.23.34s.12.34.24.34c2.54-.28 4.05 1.53 4.05 3.26 0 1.96-.83 2.73-2.97 2.73-1.26 0-1.37-.07-1.37-2.47v-5.68zM81.27 35.86c-2 0-4.81-3.61-5.81-6.13 1.64-.72 2.44-1.62 2.44-2.74 0-1.85-2.12-3.25-4.95-3.25-2.49 0-4.02.11-4.7.32-.15.05-.22.19-.19.36.02.14.12.29.3.29h.06c.23-.04.45-.07.62-.07.86 0 .93.39.93 2.58v5.58c0 1.74-.517 2.663-1.55 2.77h-.03c-.23 0-.24.37-.24.39 0 .06.01.12.03.16.04.08.12.15.24.13.77-.09 1.64-.11 2.7-.11.87 0 1.74.04 2.31.11.09 0 .17-.05.22-.13.08-.14.03-.35-.02-.45l-.07-.1h-.09c-1.047-.087-1.57-1.013-1.57-2.78v-2.55H72.79c.29 0 .62 0 .94-.04.49 1.66 2.33 6.33 7.52 6.33.13 0 .26-.1.26-.3 0-.1-.05-.38-.24-.38v.01zm-9.36-8.81c0-1.25.03-2.04.1-2.44.24-.02.44-.03.69-.03 2.46 0 3.34 1.32 3.34 2.55 0 1.12-1.35 2.28-3.6 2.28h-.54v-2.35l.01-.01z"/>
        </g>
    </g>
</svg>
