<svg width="157" height="100" viewBox="0 0 157 100" xmlns="http://www.w3.org/2000/svg">
  <g fill-rule="nonzero" fill="none">
    <path fill="#4E4540" d="M0 0h156.522v100H0z"/>
    <g fill="#FFF">
      <g stroke="#FFF" stroke-width=".22">
        <path d="M33.942 52.029A.603.603 0 0 1 35.145 52a.613.613 0 0 1-.623.594.56.56 0 0 1-.58-.565zM58.42 49.029c.015.043-.253.043-.253.014-.13-.623-.355-.949-2.203-.949h-1.486v6.116c0 2.036 0 2.13 1.312 2.232.072 0 .116.283-.03.268-.434-.058-1.144-.087-1.731-.087-.833 0-1.486.015-2.087.087-.116.03-.072-.253 0-.268 1.24-.123 1.297-.116 1.297-2.232v-6.116h-1.55c-1.798 0-2.088.312-2.261.964-.058.014-.254.014-.24-.029.058-.283.073-.76.073-1.174a3.53 3.53 0 0 0-.073-.717c-.029-.058.196-.044.254-.03.116.472.196.5 2.246.5h4.276c2.058 0 2.188-.014 2.297-.5 0-.028.268-.043.239.03a5.206 5.206 0 0 0-.109 1.16c0 .224 0 .564.03.738v-.007zM79.754 56.696c-.522 0-1.297-.073-2.348-.073-1.442 0-3.007.015-4.05.087-.117.015-.073-.253 0-.268 1.427-.152 1.441-.101 1.441-2.232v-4.246c0-2.123-.058-2.123-1.311-2.261-.073-.015-.11-.268 0-.24.608.073 1.268.088 2.072.088.623 0 1.312-.03 1.754-.087.145-.015.072.239.029.239-1.312.116-1.312.225-1.312 2.26v4.247c0 1.725.116 1.906.833 1.906h.805c2.188 0 2.246-.116 2.442-.92 0-.03.253-.044.239.029a8.985 8.985 0 0 1-.196 1.174c-.072.253-.166.297-.391.297h-.007zM82.206 47.703c-.06 0-.18-.268.02-.254m0 9.268c-.18.015-.08-.268-.02-.268M100.565 49.029c.015.043-.253.043-.253.014-.124-.623-.348-.949-2.196-.949H96.63v6.116c0 2.036 0 2.13 1.312 2.232.072 0 .109.283-.029.268-.435-.058-1.145-.087-1.74-.087-.832 0-1.477.015-2.086.087-.116.03-.073-.253 0-.268 1.24-.123 1.297-.116 1.297-2.232v-6.116h-1.55c-1.798 0-2.088.312-2.262.964-.058.014-.253.014-.239-.029.058-.283.073-.76.073-1.174a3.53 3.53 0 0 0-.073-.717c-.029-.058.196-.044.254-.03.116.472.196.5 2.246.5h4.276c2.058 0 2.188-.014 2.297-.5 0-.028.268-.043.239.03a5.677 5.677 0 0 0-.109 1.16c0 .224 0 .564.03.738v-.007zM102.768 56.71c-.145.015-.058-.268-.014-.268 1.253-.123 1.326-.116 1.326-2.232v-4.246c0-2.123-.073-2.123-1.326-2.261-.044 0-.124-.254.014-.24.609.073 1.254.088 2.087.088.594 0 1.297-.03 1.74-.087.137-.015.086.239.014.239-1.283.116-1.283.225-1.283 2.26v4.247c0 2.036 0 2.13 1.283 2.232.072 0 .123.283-.015.268-.435-.058-1.145-.087-1.739-.087-.833 0-1.485.015-2.087.087zM114.348 56.906c-3.261 0-5.297-2.189-5.297-4.638 0-2.45 2.217-5.007 5.348-5.007 1.326 0 2.724.536 3.021.76.102.088.24 1.102.268 1.979 0 .072-.224.058-.239.014-.239-1.101-1.282-2.333-3.384-2.333-2.101 0-3.71 1.5-3.71 4.058 0 3.13 2.102 4.71 4.123 4.71 1.471 0 2.92-.877 3.036-2.319 0-.043.269-.058.269.03-.037.876-.182 1.89-.297 1.978-.508.376-1.399.76-3.13.76l-.008.008zM122.913 52.029a.603.603 0 0 1 1.203-.029.613.613 0 0 1-.623.594.56.56 0 0 1-.58-.565z"/>
        <path d="M88.986 55.043c-.21.935-.341 1.116-2.5 1.116h-.747c-.652 0-.877-.166-.877-2.007v-2.884h1.457c1.297 0 1.384.167 1.464.609.014.043.282.058.253-.015-.014-.116-.014-.391-.014-.55 0-.326.029-.667.087-.877-.03-.03-.254-.073-.268-.03-.087.37.029.48-1.522.48h-1.457v-.994c0-.891.015-1.543.073-1.891h1.355c1.848 0 2.145.181 2.26.804.015.044.269.073.254 0-.014-.116-.014-.398-.014-.536 0-.297.014-.55.101-.819-.833.073-1.79.102-2.833.102-1.442 0-2.826-.03-3.855-.102-.138-.014-.058.254-.015.254 1.428.174 1.457.116 1.457 2.26v4.247c0 2.13-.03 2.08-1.457 2.232-.043 0-.116.283.015.268 1.029-.072 2.485-.087 3.906-.087 1.043 0 1.949.073 2.47.073.24 0 .327-.044.392-.297.087-.298.21-.964.268-1.312.015-.073-.253-.073-.253-.044zM48.717 56.457c-1.174-.08-1.442-.551-2.087-2.261l-2.608-6.834c-.03-.087-.21-.116-.268 0l-3.066 6.834c-.702 1.587-1.058 2.18-2.014 2.246-.044 0-.102.297.014.268.595-.072.61-.087 1.442-.087.595 0 .92.03 1.356.087.115.03.086-.268.014-.268-.638-.058-.906-.116-.906-.435 0-.398.24-.949.609-1.782l.754-1.71h2.76l.63 1.71c.269.71.537 1.355.537 1.782 0 .384-.34.37-.993.435-.043 0-.094.297.015.268.594-.072 1.326-.087 2.16-.087.593 0 1.188.03 1.622.087.145.015.087-.239.044-.253h-.015zm-6.601-4.327 1.333-3.043 1.116 3.043h-2.45zM69.536 54.21v-4.246c0-2.051-.043-2.138 1.428-2.261.072 0 .101-.268-.015-.24-.449.059-1.282.088-1.877.088-.833 0-1.355-.015-1.963-.087-.109-.03-.073.224 0 .239 1.087.13 1.188.152 1.188 2.26v1.421H62.95v-1.42c0-2.022.03-2.167 1.181-2.261.044 0 .116-.254-.029-.24-.434.059-1 .088-1.623.088-.804 0-1.594-.015-2.203-.087-.116-.03-.072.224 0 .239 1.428.174 1.435.116 1.435 2.26v4.247c0 2.13-.014 2.08-1.435 2.232-.072.015-.116.297 0 .268.61-.072 1.399-.087 2.203-.087.623 0 1.189.03 1.623.087.145.015.087-.239.044-.253-1.16-.08-1.203-.225-1.203-2.247v-2.427h5.348v2.427c0 2.109-.102 2.123-1.189 2.232-.072.015-.108.297 0 .268.61-.072 1.13-.087 1.964-.087.594 0 1.428.03 1.877.087.116.03.087-.268.015-.268-1.471-.116-1.428-.181-1.428-2.232h.007z"/>
      </g>
      <g stroke="#FFF" stroke-width=".22">
        <path d="M53.399 68.442a.603.603 0 0 1 1.202-.029.613.613 0 0 1-.623.594.56.56 0 0 1-.58-.565zM64.304 73.326c-3.26 0-5.29-2.196-5.29-4.638 0-2.442 2.218-5.007 5.348-5.007 1.326 0 2.725.536 3.022.761.102.08.24 1.101.268 1.978 0 .073-.224.058-.239.015-.24-1.102-1.283-2.334-3.391-2.334-2.109 0-3.71 1.5-3.71 4.058 0 3.124 2.101 4.71 4.123 4.71 1.464 0 2.92-.876 3.036-2.318 0-.044.268-.058.268.029-.043.877-.181 1.898-.297 1.978-.507.377-1.399.76-3.13.76l-.008.008zM76.37 73.109c-.522 0-1.298-.073-2.341-.073-1.442 0-3.007.015-4.05.087-.117.015-.073-.253 0-.268 1.427-.152 1.441-.094 1.441-2.24v-4.238c0-2.123-.058-2.123-1.311-2.261-.073-.015-.116-.268 0-.24.608.073 1.268.088 2.072.088.623 0 1.312-.03 1.754-.087.137-.015.072.239.029.239-1.312.116-1.312.232-1.312 2.26v4.24c0 1.732.116 1.913.834 1.913h.804c2.188 0 2.246-.109 2.442-.92 0-.03.254-.044.239.029a8.985 8.985 0 0 1-.196 1.174c-.072.253-.174.297-.39.297h-.015zM87.529 69.79c0 1.92-1.297 3.536-3.812 3.536-2.159 0-3.905-1.362-3.905-3.638v-3.311c0-2.123-.058-2.123-1.298-2.261-.101 0-.144-.254 0-.24.61.073 1.254.088 2.073.088.609 0 1.326-.03 1.754-.087.159-.015.072.239.029.239-1.312.116-1.312.232-1.312 2.26v3.03c0 2.246 1.58 3.224 3.036 3.224 1.92 0 2.92-1.029 2.92-2.985v-3.391c0-1.797-.13-1.993-1.384-2.138-.072-.015-.123-.254.015-.24.609.073.956.088 1.79.088.594 0 1.007-.03 1.442-.087.145-.015.101.239.029.239-1.312.116-1.37.427-1.37 2.138v3.536h-.007zM103.457 68.442a.603.603 0 0 1 1.202-.029.613.613 0 0 1-.623.594.574.574 0 0 1-.58-.565zM93.188 73.036c-.818 0-1.478.015-2.072.087-.138.015-.058-.268-.015-.268 1.254-.123 1.327-.109 1.327-2.24v-4.238c0-2.123-.073-2.123-1.327-2.261-.043 0-.123-.254.015-.24.594.073 1 .088 1.833.088.326 0 1.261-.058 1.725-.058 1.609 0 2.935.348 2.935 1.746 0 .805-.761 1.667-1.805 1.978 1.551.073 2.667 1.008 2.667 2.254 0 1.587-1.355 3.217-3.5 3.217-.478 0-1.442-.058-1.775-.058l-.008-.007zm.805-5.42c1.71 0 2.413-.464 2.413-1.797 0-1.428-.863-1.536-2.073-1.536-.21 0-.34.014-.565.058-.094.427-.109.963-.109 2.021v4.326c0 1.841.102 2.008 1.174 2.008 1.566 0 2.384-.537 2.384-2.203 0-1.392-1.21-2.82-3.217-2.609-.072.015-.072-.268 0-.268h-.007z"/>
      </g>
      <path d="M28.79 40.464c-1.261 0-2.565.022-3.464.13-.21.022-.087-.406-.022-.406 1.906-.195 2.015-.174 2.015-3.384v-6.427c0-3.218-.109-3.218-2.015-3.428-.065 0-.188-.384.022-.362.899.109 2.399.13 3.66.13.536 0 2.521-.087 3.29-.087 5.108 0 7.717 2.957 7.717 6.754 0 3.797-3.21 7.181-8 7.181-.747 0-2.696-.087-3.21-.087l.007-.014zm.558-13.094c-.13.666-.167 1.37-.167 2.978v7.217c0 2.102.319 2.32 3.42 2.32 3.102 0 5.479-2.124 5.479-5.827 0-4.5-2.479-6.797-6.435-6.797-1.478 0-1.92.065-2.29.109h-.007zM70.993 28.957c.021.065-.384.065-.384.021-.196-.942-.537-1.435-3.334-1.435H65.03v9.254c0 3.087 0 3.24 1.985 3.384.11 0 .174.428-.043.406-.66-.087-1.732-.13-2.63-.13-1.261 0-2.247.021-3.167.13-.174.043-.109-.384 0-.406 1.884-.195 1.97-.174 1.97-3.384v-9.254H60.79c-2.718 0-3.167.471-3.42 1.457-.087.022-.384.022-.363-.043.087-.428.109-1.16.109-1.783 0-.384-.044-.79-.109-1.094-.043-.087.305-.066.384-.044.174.71.297.747 3.399.747h6.478c3.123 0 3.312-.022 3.486-.747 0-.043.405-.065.362.044a7.878 7.878 0 0 0-.174 1.76c0 .341 0 .856.044 1.117h.007zM89.63 33.797c0-3.558 3.32-7.522 8.044-7.522 4.725 0 7.681 3.384 7.681 7.073 0 3.688-3.333 7.543-8.08 7.543-4.746 0-7.637-3.384-7.637-7.094h-.008zm1.928-.71c0 4.717 3.167 7.138 6.225 7.138 3.231 0 5.645-2.276 5.645-6.153 0-4.717-3.21-7.159-6.247-7.159-3.232 0-5.623 2.29-5.623 6.174zM109.022 40.594c-.21.022-.087-.406-.022-.406 1.906-.195 2.007-.174 2.007-3.384v-6.427c0-3.218-.108-3.218-2.007-3.428-.065 0-.188-.384.022-.362.92.109 1.906.13 3.166.13.899 0 1.971-.043 2.63-.13.211-.022.131.362.023.362-1.95.174-1.95.34-1.95 3.428v6.427c0 3.087 0 3.24 1.95 3.384.108 0 .188.428-.022.406-.66-.087-1.732-.13-2.63-.13-1.261 0-2.247.022-3.167.13zM132.435 28.957c.022.065-.384.065-.384.021-.196-.942-.537-1.435-3.334-1.435h-2.246v9.254c0 3.087 0 3.24 1.986 3.384.108 0 .166.428-.044.406-.667-.087-1.732-.13-2.63-.13-1.261 0-2.247.021-3.167.13-.167.043-.102-.384 0-.406 1.884-.195 1.971-.174 1.971-3.384v-9.254h-2.355c-2.718 0-3.167.471-3.42 1.457-.087.022-.384.022-.363-.043.087-.428.109-1.16.109-1.783 0-.384-.044-.79-.109-1.094-.043-.087.297-.066.384-.044.167.71.297.747 3.399.747h6.478c3.123 0 3.312-.022 3.486-.747 0-.043.405-.065.362.044a8.386 8.386 0 0 0-.167 1.76c0 .341 0 .856.044 1.117zM53.442 38.065c-.319 1.413-.514 1.696-3.783 1.696h-1.13c-.986 0-1.326-.261-1.326-3.044v-4.37h2.203c1.964 0 2.094.254 2.224.921.022.065.428.087.384-.022-.021-.174-.021-.601-.021-.833 0-.493.043-1.007.13-1.326-.043-.044-.384-.109-.406-.044-.13.558.044.725-2.311.725h-2.203v-1.507c0-1.348.022-2.333.109-2.87h2.05c2.805 0 3.247.276 3.42 1.225.022.065.406.109.385 0-.022-.174-.022-.602-.022-.819 0-.45.022-.833.152-1.239-1.26.109-2.717.152-4.297.152-2.181 0-4.275-.043-5.84-.152-.218-.022-.088.384-.022.384 2.16.254 2.203.174 2.203 3.428v6.427c0 3.24-.044 3.152-2.203 3.384-.066 0-.174.428.021.406 1.558-.109 3.761-.13 5.928-.13 1.58 0 2.95.108 3.74.108.361 0 .492-.065.6-.45.124-.448.32-1.456.406-1.992.022-.109-.384-.109-.384-.065l-.007.007zM77.884 33.565c.254.015.638.015.833.015.45 0 1.044.014 1.595-.073.942 3.384 3.536 7.34 8.536 7.34.188 0 .087-.405.022-.405-2.399 0-5.798-4.297-6.95-7.384 1.834-.768 2.863-1.74 2.863-3.065 0-2.065-2.392-3.565-5.515-3.565-2.355 0-4.493.086-5.37.362-.195.065-.065.406.044.384.297-.044.58-.087.812-.087 1.217 0 1.26.746 1.26 3.174v6.45c0 3.217-.086 3.195-2.007 3.383-.065 0-.152.45.022.406.899-.109 1.906-.13 3.145-.13.942 0 1.993.043 2.652.13.217.022.109-.406.044-.406-1.986-.152-1.986-.304-1.986-3.384v-3.145zm.812-.587c-.174 0-.624 0-.812-.021v-2.892c0-1.565.044-2.55.152-3 .363-.022.623-.043.964-.043 3.109 0 4.043 1.782 4.043 3.13 0 1.457-1.702 2.826-4.34 2.826h-.007z"/>
      <path d="M151.232 94.696H5.29l.022-89.392h145.92v89.392zM5.754 94.239h145.014V5.77H5.775l-.021 88.47z" stroke="#FFF" stroke-width=".22"/>
    </g>
  </g>
</svg>
