<svg width="156" height="245" viewBox="0 0 156 245" xmlns="http://www.w3.org/2000/svg">
    <g fill="#9D968D" fill-rule="nonzero">
        <path d="M155.477 70.93c-.092-.296-1.187-3.334-3.836-3.61-1.802-.185-4.015.935-4.475 2.97-.48 1.963 1.002 3.538 1.119 3.678-.32-1.28.227-2.534 1.186-2.99.867-.412 1.942-.16 2.509.436 1.143 1.212.664 4.318-1.322 5.185-1.37.596-3.197.044-4.291-1.439a22.094 22.094 0 0 0-3.744-3.79 22.957 22.957 0 0 0-3.996-2.534c1.003.364 2.557.684 4.291.184 2.078-.615 3.216-2.01 3.604-2.51a18.47 18.47 0 0 0-3.856-2.146 17.916 17.916 0 0 0-4.954-1.256c1.414.068 4.087.025 7.095-1.23a16.304 16.304 0 0 0 5.773-4.09c-.775-.708-2.557-2.215-5.318-2.811-3.24-.732-5.89.228-7.027.751.91-.436 3.4-1.943 3.995-4.957.548-2.81-.799-5.752-3.4-7.332a3.642 3.642 0 0 0-2.421-.504c-.228.024-1.599.228-2.281 1.303-.708 1.12-.436 2.879.842 4.178a2.723 2.723 0 0 1 .664-1.963c1.002-1.12 2.557-.843 2.65-.824.503.708 1.118 1.783.774 2.695-.504 1.279-2.6 1.23-4.722 2.103-1.39.596-3.216 1.759-4.974 4.385a6.712 6.712 0 0 0 .915-3.45 6.472 6.472 0 0 0-.683-2.627 13.192 13.192 0 0 1-3.308 2.603c-5.89 3.29-12.394.867-13.784.32.16-.044 3.836-1.44 4.335-4.454.523-3.014-2.306-6.784-6.984-7.332.523.892 1.027 2.08 1.05 3.518.093 3.199-2.188 6.305-5.729 8.06-1.37-.117-2.76-.204-4.131-.32.639-.253 2.6-1.12 3.923-3.291 1.555-2.578 1.075-5.137.959-5.733-.935.683-2.373 1.6-4.248 2.443-1.961.867-2.988 1.003-4.131 1.482-1.642.684-3.763 2.215-5.638 5.845h-1.642c.364-.892 1.027-2.171 2.097-3.494 1.783-2.19 3.585-3.039 5.25-4.202 1.691-1.187 3.88-3.174 5.89-6.624a8.758 8.758 0 0 1 8.33 1.051 12.87 12.87 0 0 0-2.189-4.133c-1.094-1.372-2.029-2.535-3.535-2.738-2.097-.276-3.763 1.483-4.04 1.783 0-.184.044-2.65 2.103-3.973 1.53-.96 3.128-.64 3.467-.548 2.49.572 3.4 3.038 3.468 3.218.092-.32.867-2.922-.799-5.253-.252-.344-1.962-2.651-4.77-2.423-2.558.203-3.904 2.35-4.04 2.578a25.432 25.432 0 0 0-.092-3.882c-.295-3.13-1.143-5.708-1.937-7.603-.843.344-1.71.664-2.582.984a18.983 18.983 0 0 1 1.69 5.093c.136.731.32 1.919.32 3.721.024 2.03-.16 5.321-1.279 9.547.025-.228.436-2.97-1.53-4.773-1.574-1.415-4.291-1.963-6.069-.504-1.826 1.531-1.482 4.133-1.462 4.293.276-.295 1.642-1.667 3.08-1.371 2.01.412 2.465 3.79 2.577 4.613.436 3.082-.935 5.64-1.69 6.784a26.903 26.903 0 0 0-2.19 2.51 28.828 28.828 0 0 0-2.717 4.134c1.758-3.79 2.17-6.963 2.238-8.907.092-2.466-.296-3.586-.48-4.041-1.23-3.082-4.654-5.825-8.49-5.573-.775.044-3.928.344-5.662 2.99-.228.344-2.19 3.31-.572 5.733 1.12 1.642 3.425 2.398 5.662 1.69-.252-.091-1.826-.73-2.509-2.49-.067-.203-.775-2.147.252-3.562 1.439-2.03 5.434-1.759 6.548 0 .892 1.415-.227 3.61-.663 4.454-1.027 2.01-2.121 2.19-2.896 3.79-.412.842-.732 2.098-.412 3.997a4.977 4.977 0 0 0-1.782-2.374 5.14 5.14 0 0 0-2.989-.984c-.184.732-.455 2.17-.068 3.881.524 2.307 1.938 3.722 2.51 4.202-.8.523-1.575 1.027-2.35 1.55.732-2.282-.135-4.705-1.942-5.824-2.19-1.372-5.453-.596-6.936 2.01.48-.091 2.306-.435 3.628.665 1.051.867 1.187 2.214 1.37 3.857.093.96.136 2.49-.319 4.386-1.027 1.371-2.03 2.762-3.037 4.157-.024.025-.024.044-.043.044-.092-.024.436-2.898.252-4.749-.16-1.55-.91-3.654-3.676-6.028a6.533 6.533 0 0 0-1.783 2.762c-.64 1.87-.271 3.562.116 4.589-.411-.8-1.21-1.851-2.6-2.35-1.802-.64-3.88-.092-5.226 1.415.959.276 2.261.824 3.424 1.919 3.627 3.402 2.533 8.926 2.421 9.386-.092-.596-.707-4.545-4.266-6.76-3.13-1.943-7.256-1.802-10.5.388 1.941 1.323 3.879 2.65 5.797 3.95-.456 0-1.051.024-1.69.16a8.252 8.252 0 0 0-1.71.479c.867.276 3.308 1.163 5.066 3.678 2.625 3.722 1.482 7.899 1.322 8.495-.116-.8-1.027-6.508-6.229-9.566-3.375-1.987-6.732-1.783-7.943-1.643a250.727 250.727 0 0 1-2.17-2.67 8.363 8.363 0 0 0-.276 2.947c.228 2.214 1.303 3.745 1.826 4.404-3.787-.48-7.187 1.624-8.127 4.682-.683 2.19-.27 5.48 2.33 7.08 2.262 1.39 5.318 1.051 7.347-.936-2.533 1.052-5.134.364-6.228-1.303-.891-1.415-.615-3.378.276-4.59 1.986-2.67 7.212-1.87 10.108-.683 4.494 1.827 6.548 5.844 7.187 7.26a10.138 10.138 0 0 0-3.903-2.855c-2.214-.91-4.2-.8-5.09-.683.27.935.774 2.171 1.641 3.45a13.221 13.221 0 0 0 4.064 3.974c-1.53-.16-2.989.504-3.812 1.735-.935 1.39-.867 3.29.16 4.68a2.919 2.919 0 0 1 1.143-2.945c1.002-.732 2.422-.708 3.448.092a11.424 11.424 0 0 0 0 4.065c.683 3.746 3.08 6.053 4.015 6.853-4.562 2.442-6.456 7.72-4.702 11.872 1.53 3.63 5.502 5.64 9.313 5.297 3.696-.344 6.892-2.879 8.103-6.484-.799.436-3.012 1.483-5.705.935-1.119-.228-3.56-.707-4.2-2.65-.503-1.576.344-3.562 2.146-4.866 1.666-.024 3.357-.068 5.023-.092a42.678 42.678 0 0 1 4.015 2.898c1.55 1.28 4.543 3.857 7.735 8.059 3.172 4.157 3.308 5.616 5.09 8.083 5.274 7.259 15.586 10.433 24.008 10.07 6.185-.253 11.067-2.419 14.153-4.202-.456.615-1.23 1.827-1.439 3.538-.387 3.31 1.734 5.708 2.097 6.076a10.044 10.044 0 0 1 .117-4.09c1.143-4.817 5.477-7.104 6.3-7.51a8.517 8.517 0 0 0-1.665 4.317c-.364 4.521 3.288 7.535 3.651 7.855.364-.867.708-1.827 1.003-2.878.8-2.83 1.003-5.365 1.003-7.42 0 1.028.203 2.811 1.438 4.318 2.054 2.578 6.253 3.334 10.268 1.667 1.322-.16 2.581.276 2.988 1.095.596 1.144-.252 3.267-2.533 4.09 2.441 0 4.679-1.211 5.638-3.198 1.346-2.81-.436-5.985-2.33-7.535-2.078-1.667-4.519-1.575-5.202-1.532.572-.184 1.575-.59 2.33-1.55 1.187-1.575 1.187-3.926 0-5.985-.228.548-.799 1.623-1.986 2.215-1.801.91-4.315.32-6.093-1.551.664-1.667 1.323-3.31 1.986-4.977.572.824 1.119 1.623 1.666 2.442.843-.64 2.374-1.943 3.425-4.109 1.462-2.946 1.162-5.708 1.002-6.736.615.843 1.255 1.691 1.87 2.535-.092-1.692 1.782-4.546 2.121-6.213 1.21-5.936.32-8.378.092-9.042-.571-1.87-1.598-3.199-2.33-3.998a40.114 40.114 0 0 0-.092-4.318 39.102 39.102 0 0 0-1.346-7.511c.915.892 1.758 1.6 2.441 2.103.756.548.959.616 1.119.548.663-.32-.252-3.359-.344-3.654-.344-1.163-1.003-2.81-2.33-4.638.48.436 2.625 2.35 5.202 1.987 3.836-.547 6.253-5.776 5.023-9.338l.019.01zM142.99 93.948c-.916 4.817-9.72 10.685-10.98 9.706 0 .504.092 1.347.64 2.147.866 1.323 2.557 1.987 4.358 1.803a3512.82 3512.82 0 0 0 4.495-4.158c-.596 1.962-1.642 4.453-3.628 6.828-1.482 1.759-3.652 4.337-5.662 3.746-1.918-.572-2.465-3.698-2.557-4.178-.547.345-2.121 1.348-2.988 3.427-1.027 2.49-.296 4.705-.116 5.228.823.276 2.465.732 4.494.436a9.322 9.322 0 0 0 4.679-2.146c-.523 1.003-1.53 2.602-3.308 3.95-2.737 2.078-7.488 3.697-9.474 1.71-.363-.364-1.002-1.188-.959-2.99-.295 0-2.877.135-4.383 2.35-1.119 1.643-.91 3.402-.843 3.838a5.24 5.24 0 0 0 1.599 1.71c1.55 1.052 3.216.96 3.88.868-1.55.344-3.764.48-5.798-.548-1.463-.75-2.03-1.69-2.897-2.466-1.482-1.372-4.267-2.65-9.904-1.92-.044.733-.024 1.576.203 2.467 1.003 3.95 4.839 5.801 5.662 6.189-.504.91-.959 1.143-1.279 1.163-1.71.184-2.33-4.454-5.545-5.437-1.279-.388-1.507.227-3.308-.228-.615-.136-3.148-.776-3.948-2.559-.823-1.827.344-4.681 3.08-6.6-2.828-.024-5.433 1.55-6.707 4.042-1.87 3.653.203 7.172.32 7.375-1.347-.775-3.265-2.147-4.476-4.497-2.281-4.361-1.21-10.254 2.669-14.935-.412-.412-.823-.8-1.23-1.212a17.44 17.44 0 0 0-2.19 2.811c-2.44 3.974-2.557 8.04-2.44 10.138a7.901 7.901 0 0 1-1.918-2.35c-1.12-2.031-.732-3.47-1.39-5.438-.412-1.163-1.23-2.718-3.197-4.269a92.328 92.328 0 0 0-.64 2.467c-1.825-2.99-3.627-5.985-5.453-8.975-.136-.136-1.279-1.347-2.988-1.163-1.415.136-2.65 1.187-3.08 2.65a5.378 5.378 0 0 1-2.03-.523c-1.962-.935-2.76-2.762-2.988-3.31.343-.755 1.002-2.03 2.349-3.081.842-.664 1.758-1.391 2.785-1.188 1.094.228 1.961 1.44 2.237 2.99.344-.436 1.027-1.39 1.163-2.762.27-2.694-1.802-4.521-2.03-4.705.363-.117 1.37-.504 1.918-1.483.756-1.304.48-3.13-.731-4.497.295 0 2.145-.092 3.4-1.6 1.119-1.322 1.37-3.217.64-4.908-.505.387-1.304.983-2.35 1.599-3.24 1.963-5.022 2.055-6.388 2.99-1.439 1.003-2.92 3.29-2.669 9.178-.731.116-1.482.204-2.238.32-.116-1.895-.024-5.437 1.918-9.067.984-1.803 3.173-5.893 7.464-6.711 1.802-.364 3.376-.025 4.383.32a5.815 5.815 0 0 0-1.482-2.579c-1.894-1.827-4.407-1.623-4.814-1.599.823-.436 1.85-.867 3.104-1.051 4.495-.732 8.055 2.098 8.854 2.762.116-.843.136-2.19-.547-3.518-1.23-2.423-4.267-3.79-7.667-3.426.571-.732 1.986-2.283 4.267-2.879 3.037-.8 7.052.252 7.463 2.239.296 1.483-1.482 3.038-2.237 3.63.411-.025 3.603-.204 4.586-2.123 1.07-2.123-.639-6.145-5.226-8.219.48-.276 1.23-.596 2.122-.523 1.69.116 2.421 1.55 3.744 2.239 1.118.572 3.012.8 6.388-.96.363.044 1.986.296 2.785 1.6.959 1.599.344 4.225-1.942 5.868 1.002-.32 3.056-1.12 3.744-2.879 1.05-2.67-1.187-6.963-6.297-9.178.867-.276 2.097-.48 3.308 0 1.55.616 1.482 1.735 2.877 2.762 2.466 1.803 4.882-.067 7.372 1.6.683.48 1.622 1.39 2.237 3.31.32-.8 1.163-3.175.436-6.073-.91-3.537-3.535-5.345-4.175-5.776 1.143.548 3.517 1.827 5.343 4.497 1.574 2.282.682 3.47 2.029 4.797 2.49 2.491 6.529.117 8.854 2.763.067.092 1.302 1.55.842 2.786-.436 1.163-2.28 1.827-4.586 1.483 2.257 1.44 4.974 1.211 6.388-.204 1.85-1.827 1.666-5.824-1.37-7.99.343.135 2.896 1.187 3.835 4.041.843 2.578-.227 4.725-.436 5.117.504.708 1.051 1.415 1.599 2.147.571.732 1.143 1.44 1.71 2.123a24.24 24.24 0 0 0 .319-4.682c-.068-2.99-.683-5.456-1.279-7.264 1.12 1.052 2.558 2.719 2.989 5.026.344 1.759-.092 2.897-.204 4.36-.184 1.988.228 4.934 2.964 8.748a9.61 9.61 0 0 0 2.03-4.042c1.027-4.453-1.574-8.04-2.03-8.655.843.548 2.49 1.76 3.425 3.95 1.961 4.657-1.303 9.134-1.507 9.386 1.211-.135 2.422-.271 3.628-.411a7.521 7.521 0 0 1-.843 3.082c-1.39 2.602-3.923 3.518-4.586 3.745.547.185 2.145.64 3.947 0 2.92-1.051 3.763-4.09 3.836-4.385.387 1.12 1.094 3.765 0 6.62-.867 2.262-3.173 5.48-5.434 5.025-1.323-.272-2.122-1.711-2.466-2.467-.024.204-.411 3.174 1.599 4.793 2.213 1.783 5.318.344 5.545.227 3.216-1.55 4.795-6.532 3.744-12.376.64 1.076 2.306 4.201 1.599 7.99h-.01z"/>
        <path d="M98.19 19.398c3.138 1.008 5.139.591 6.398 0 3.574-1.676 3.55-5.859 7.396-8 2.053-1.144 4.247-1.168 5.797-.999-.189-.392-1.569-3.15-4.698-3.9-2.693-.645-5.608.455-7.396 2.8a12.544 12.544 0 0 0-4.3-9.299 10.862 10.862 0 0 0-4.897 9.503c-.33-.853-1.526-3.63-4.596-5.403-3.75-2.162-7.488-1.197-8.2-.999.194.577.455 1.478.6 2.603.286 2.195-.13 3.179.102 4.802.136.96.523 2.326 1.7 3.9-.566-.062-2.087-.144-3.497.8-1.767 1.188-2.634 3.509-2.199 5.903.155-.32.732-1.425 2-1.9a3.454 3.454 0 0 1 1.502-.198c1.865.135 3.047 1.657 3.298 2a9.972 9.972 0 0 0-3.598 2.303 10.015 10.015 0 0 0-2.5 4.201c.558.228 6.593 2.578 11.998-.998 3.618-2.394 4.79-6.019 5.1-7.1l-.01-.019zM85.438 117.237c.014-.998-.083-3.537-1.754-6.076-2.14-3.247-6.209-4.459-6.209-4.459s1.647-.78 3.139-.828c1.83-.054 3.666.504 4.557.828-.64-1.352-1.739-3.072-3.647-4.05-2.14-1.096-3.632-.408-5.265-1.353-1.293-.746-2.673-2.51-2.969-7.026a10.865 10.865 0 0 0 4.05 2.432 10.76 10.76 0 0 0 3.646.538c-.886-.465-3.472-1.967-4.862-5.132-2.122-4.831-.155-9.023.14-9.537 1.38.374 3.885 1.256 5.754 2.293 2.31 1.284 3.773 2.166 4.906 3.324-.334-.19-3.651-2.98-3.976-7.865-.252-3.79 1.056-7.148 4.654-8.883 1.148.19 2.848.65 4.456 1.89 4.437 3.426 3.967 9.552 3.914 10.133-.024-.509-.199-6.396 4.727-10.133 5.018-3.809 10.767-1.909 11.207-1.754.678 1.08 1.942 3.455 1.89 6.62-.098 5.863-4.64 9.391-5.265 9.861.968-.993 3.864-3.717 8.504-4.458 6.084-.974 10.593 2.19 11.474 2.835-.01 1.58-.276 4.545-2.16 7.428-4.267 6.528-12.752 6.373-13.367 6.349 1.254-.35 4.722-1.134 8.776.271 4.276 1.483 6.562 4.487 7.289 5.539a15.265 15.265 0 0 1-4.456 3.513c-5.318 2.748-10.64 1.39-12.152.945 1.497.722 3.4 1.861 5.265 3.65a20.501 20.501 0 0 1 2.16 2.432c-1.652.794-4.451 1.841-7.967 1.754-7.827-.189-12.748-5.835-13.64-6.89 1.216 2.112 1.648 3.726 2.006 5.669.121.644-.596 1.114-1.119.717a16.787 16.787 0 0 0-5.07-2.602c-4.709-1.473-8.443 1.846-8.641 2.025h.005z"/>
        <path d="m121.259 131.993-16.763 9.46a7.465 7.465 0 0 1-2.77-.127 7.517 7.517 0 0 1-3.023-1.512c-.053.083-.959 1.508-.251 3.03.527 1.128 1.729 1.836 3.022 1.763a18.773 18.773 0 0 0-4.16 3.28 18.805 18.805 0 0 0-3.657 5.55c-.325 0-.688-.02-1.076-.073a8.18 8.18 0 0 1-2.257-.655c.267-.552.76-1.783.582-3.353-.281-2.49-2.03-3.935-2.408-4.23-.014-.102-.237-2.065 1.24-3.208.81-.626 2.296-1.134 3.28-.364.958.746 1.176 2.491.145 3.862.377-.295 2.014-1.638 2.039-3.571.034-2.665-3.023-5.06-5.977-4.812-2.393.199-4.49 2.113-5.1 4.74.14-.926.344-3.122-.727-5.545a9.959 9.959 0 0 0-2.697-3.571 10.553 10.553 0 0 0-1.095 2.481 10.712 10.712 0 0 0-.29 4.667l-2.592-2.593c-.072-.14-.615-1.216-.106-2.37.421-.95 1.39-1.574 2.48-1.603-.31-.3-.892-.776-1.749-1.023-1.705-.485-3.138.34-3.424.509.431-.897.92-2.258.804-3.862-.189-2.525-1.715-3.538-2.33-6.053-.305-1.245-.445-3.101.436-5.616-1.613.576-2.586 1.444-3.133 2.04-2.316 2.54-2.674 6.644-1.095 10.574a95.197 95.197 0 0 0-5.686-10.283c-6.766-10.632-14.598-18.289-21.185-23.595.223-1.09.417-2.81-.048-4.807-.199-.858-.48-1.59-.76-2.19a3.257 3.257 0 0 0-1.715.145c-1.754.649-2.2 2.631-2.238 2.805-1.172-1.274-2.3-2.006-3.119-2.442-2.17-1.158-3.676-1.032-4.96-2.433-.755-.823-1.07-1.768-1.215-2.432a1.874 1.874 0 0 0-.867.688c-.533.8-.19 1.71-.15 1.807-.562.131-.843.417-.954.553-.567.688-.485 1.914.3 2.96-.518-.009-1.342-.019-2.354 0-4.548.093-5.061.64-6.626.146-1.738-.547-3.526-1.996-4.121-3.978a5.299 5.299 0 0 1-.194-1.963c-.107-1.299.688-2.258 1.492-2.311.528-.034 1.065.315 1.317.785.387.717.116 1.754-.746 2.35 1.565.189 3.027-.29 3.662-1.318 1.036-1.662-.412-4.245-2.277-5.195-2.048-1.042-4.388 0-5.652 1.173-1.598 1.487-2.194 3.852-1.564 6.12A12.323 12.323 0 0 0 4.573 86a6.657 6.657 0 0 0 .46 3.31c.935 2.23 2.82 3.203 3.342 3.45-.668.388-1.51.975-2.349 1.832a10.981 10.981 0 0 0-2.257 3.431c.974.335 2.853.839 5.187.504 3.071-.44 5.086-2.069 5.856-2.762a34.585 34.585 0 0 0-8.282 7.952c-1.7 2.292-5.768 7.928-6.437 15.934-.925 11.082 5.304 19.18 6.946 21.186-.35.674-.998 2.147-.804 4.012.222 2.176 1.457 3.606 1.932 4.139 2.736 3.087 6.166 2.34 6.805 4.138.315.897-.044 2.472-3.4 5.428 2.886-.126 5.434-1.852 6.529-4.415 1.433-3.358-.368-6.416-.552-6.716.61.227 3.012 1.206 4.228 3.77 1.25 2.64.74 5.912-1.289 8.369 2.301-.209 4.316-1.57 5.24-3.586 1.134-2.472.442-5.53-1.748-7.453.989.416 2.345 1.153 3.493 2.486 1.714 1.986 1.065 3.106 2.387 4.322 2.378 2.186 5.987-.02 7.813 2.21.61.741.934 1.875.552 2.665-.548 1.139-2.596 1.657-5.057.92 2.475 1.484 5.275 1.726 7.081.461 2.824-1.982 1.996-6.833.552-9.474-1.806-3.3-5.7-5.2-10.02-5.059 1.501-.33 4.765-1.265 7.536-4.138 4.945-5.127 4.088-12.028 3.952-12.968l-1.749-.828c.054 1.22 0 3.009-.552 5.059 0 0-1.254 4.637-4.688 7.816-5.536 5.127-18.303 4.318-25.834-2.573-8.447-7.734-7.73-20.775-3.86-29.066 3.303-7.075 8.96-10.82 11.585-12.323a6.677 6.677 0 0 0-.92 3.77 6.584 6.584 0 0 0 1.012 3.126 158.74 158.74 0 0 0 4.32-4.23 159.15 159.15 0 0 0 4.504-4.784c1.633-.087 3.318-.15 5.057-.184 1.835-.034 3.613-.034 5.332 0 .644.49 1.289.979 1.933 1.473-.218-.01-2.66-.101-3.952 1.658-1.294 1.754-.94 4.666 1.196 6.532a6.499 6.499 0 0 1 1.84-2.481c1.831-1.507 3.919-1.498 4.505-1.473a70.942 70.942 0 0 1 5.516 4.414c9.643 8.548 15.34 18.352 18.754 26.217.31 1.095.867 2.66 1.932 4.322 1.395 2.18 2.97 3.45 3.584 3.955 2.829 2.32 7.764 6.871 14.433 13.151 1.07.616 2.146 1.226 3.216 1.842-.915.392-1.927.741-3.032 1.013-6.088 1.478-11.464-.398-14.249-1.658-.12.737-.247 1.473-.368 2.21 2.344 1.027 6.776 2.583 12.409 2.21a26.301 26.301 0 0 0 8.272-1.934 30.028 30.028 0 0 1-3.39 5.733 30.231 30.231 0 0 1-7.381 6.954 10.023 10.023 0 0 0-2.756-1.042c-1.1-.242-1.778-.378-2.31 0-.964.688-.62 2.496-.596 2.612-.678-1.052-2.034-2.782-4.325-3.804-2.892-1.29-5.735-.756-7.382-.446-3.482.654-4.01 1.875-6.19 1.788-1.491-.058-3.7-.727-6.334-3.877-.543.975-1.095 2.375-.896 3.955.566 4.482 6.683 6.644 8.572 7.307 5.212 1.842 9.978.853 12.375.15a13.78 13.78 0 0 0-2.61 2.986c-6.85 10.646 3.87 27.505 4.988 29.225-.286-1.763-.465-4.424.44-7.341 1.342-4.308 3.527-4.25 4.844-8.078 1.778-5.166-1.182-8.243 1.322-12.338.896-1.468 2.15-1.337 2.935-2.937 1.003-2.045.47-4.38-.155-6.052a30.177 30.177 0 0 0 4.001-3.29 30.04 30.04 0 0 0 4-4.842 38.956 38.956 0 0 0-.73 6.809c-.05 2.476.14 4.676.41 6.518-.692.223-2 .746-3.133 1.977-1.966 2.137-1.922 4.773-1.893 5.36a9.841 9.841 0 0 0 2.804-.99 9.861 9.861 0 0 0 3.051-2.558 18.93 18.93 0 0 0-5.773 6.436c-2.48 4.55-2.368 8.863-2.223 10.641 1.36-.33 3.322-1.022 5.192-2.558 4.872-3.998 4.95-10.269 4.945-11.301l1.894 3.959a18.664 18.664 0 0 0-1.812 6.019c-.654 5.335 1.216 9.527 2.146 11.3a10.268 10.268 0 0 0 2.31-3.63c.974-2.65.557-4.976.33-5.94a15.374 15.374 0 0 0 5.44 9.072c.221-.674.434-1.479.575-2.395a15.12 15.12 0 0 0 .165-3.053c.59.562 1.37 1.488 1.729 2.806.687 2.515-.431 5.389-2.805 7.424a12.22 12.22 0 0 0 2.64-.824 12.412 12.412 0 0 0 2.804-1.73c1.153 1.682 1.255 3.044 1.22 3.77-.16 3.586-4.208 7.11-10.175 8.083v2.317c1.138.077 4.015.12 7.028-1.585 3.075-1.74 4.48-4.279 4.824-4.933a11.95 11.95 0 0 0 1.259-3.988c.145.48 1.06 2.452 2.668 3.421 1.734 1.047 3.914.456 5.783-.712-.915-.369-2.76-1.023-4.15-2.607-2.306-2.632-2.495-5.67-2.519-6.61a23.41 23.41 0 0 0 3.671 3.358 23.585 23.585 0 0 0 4.824 2.728 6.99 6.99 0 0 0 .315-2.306c-.077-2.375-1.375-4.027-1.889-4.619 2.185.77 5.614 2.423 8.81 3.674 3.197 1.25 2.645 3.934.95 4.438-2.015.601-2.95-.877-4.204-3.072-.112.218-1.003 2.05-.107 3.78.944 1.822 3.26 2.33 4.93 1.89 2.253-.596 3.488-2.956 3.464-4.827-.04-2.742-2.805-5.466-6.713-5.665l3.041-.523c.15.3 1.705 3.305 5.246 3.882 3.434.562 5.821-1.638 6.083-1.89a8.84 8.84 0 0 0-2.097-2.728c-2.296-2.002-4.97-2.186-5.875-2.205l3.041-.945c.465-.088 2.504-.422 4.51.838 2.32 1.463 2.77 3.916 2.833 4.303.29-.518.813-1.652.63-3.043-.272-2.016-1.923-3.746-4.195-4.41 2.35-1.614 5.037-3.969 7.236-7.346 7.783-11.93 2.698-26.178 1.889-28.34 0 0 .993-.707 1.245-1.618.377-1.357-.199-2.558-.092-3.63.092-.954.668-2.243 2.833-3.673-.145-.092-2.61-1.574-5.139-.315-1.913.955-2.518 2.806-2.625 3.15a22.472 22.472 0 0 0-5.347-3.464 22.503 22.503 0 0 0-6.606-1.89l-1.366 2.204c3.066.582 6.878 1.91 10.07 4.934 6.79 6.43 8.204 18.09 3.462 29.279a7.85 7.85 0 0 0-1.366-3.15 7.8 7.8 0 0 0-1.68-1.682c-.18.93-.455 2.317-.838 3.988-.518 2.254-1.177 5.118-1.68 6.402-2.393 6.116-13.426 7.516-15.422 7.768-2.717.344-7.41.552-13.11-1.26.93.223 3.273.66 5.976-.315a10.443 10.443 0 0 0 4.3-2.937 15.189 15.189 0 0 0-4.3-1.681c-5.13-1.139-9.41.756-11.014 1.575a24.548 24.548 0 0 1-8.18-5.772c-4.238-4.555-5.604-9.541-6.083-11.858a11.548 11.548 0 0 0 7.342 2.622 15.563 15.563 0 0 0-1.153-3.988c-1.83-4.134-5.027-6.392-6.606-7.347a22.053 22.053 0 0 1-.315-5.248s.247-4.075 2.204-8.398c2.257-4.976 11.081-13.176 24.962-19.626-.087-1.129-.17-2.258-.256-3.392h.029z"/>
        <path d="M31.425 110.68a9.178 9.178 0 0 1-.519-2.727c-.043-1.29.209-2.07.262-2.598.121-1.197-.596-3.033-4.548-5.718a29.482 29.482 0 0 1-3.119 3.378c-1.42 1.318-2.034 1.628-2.47 2.471-.518 1.003-.746 2.709.78 5.718-.247-.669-1.168-2.922-3.638-4.42-2.533-1.535-5.017-1.269-5.715-1.167.053.533.116 1.342.131 2.34.02 1.377-.068 1.745 0 2.21.13.872.814 2.045 3.376 3.247-.208-.252-1.783-2.084-4.417-2.079-2.524 0-4.06 1.686-4.287 1.948.083.557.344 1.76 1.298 2.86 1.56 1.802 3.74 1.933 4.156 1.947-.736.039-2.693.243-4.548 1.691a8.14 8.14 0 0 0-2.47 3.247 7.193 7.193 0 0 0 2.727 2.34c2.155 1.048 4.175.665 4.804.52a7.131 7.131 0 0 0-3.376 1.56c-1.66 1.395-2.184 3.145-2.339 3.77a8.52 8.52 0 0 0 3.638 1.817c2.533.572 4.591-.203 5.322-.518-.377.14-2.189.867-3.119 2.859-1.123 2.413-.01 4.666.131 4.938.615.126 3.076.547 5.584-.911 2.223-1.29 3.12-3.267 3.376-3.901a7.14 7.14 0 0 0-.13 3.508c.736 3.31 3.695 4.836 4.155 5.069a7.35 7.35 0 0 0 2.596-3.64 7.344 7.344 0 0 0 0-4.419 9.124 9.124 0 0 0 2.727 2.21 9.093 9.093 0 0 0 4.025 1.042c-.393-.834-.795-2.045-.519-3.378.19-.906.557-1.25.78-2.079.233-.862.276-2.17-.649-4.027a14.247 14.247 0 0 0 3.376 2.598c4.504 2.49 9.096 1.778 10.781 1.43a14.656 14.656 0 0 0-1.947-4.677 14.696 14.696 0 0 0-4.417-4.42 13.729 13.729 0 0 0 4.674-2.078 13.693 13.693 0 0 0 2.47-2.21 11.661 11.661 0 0 0-3.376-3.378 11.598 11.598 0 0 0-5.197-1.817 11.888 11.888 0 0 0 2.727-3.247 11.85 11.85 0 0 0 1.429-4.158c-.91-.576-3.182-1.831-6.234-1.69-4.978.227-7.89 3.983-8.31 4.55l.019-.01zM134.68 156.29a9.02 9.02 0 0 0 2.615-2.05c2.63-2.999 2.368-6.813 2.276-7.743-1.084-.126-3.104-.208-5.347.683-3.797 1.507-5.492 4.706-5.918 5.578.232-.916.537-2.646 0-4.667a9.013 9.013 0 0 0-1.022-2.389c-.95.3-2.427.906-3.87 2.162-2.344 2.04-3.143 4.535-3.414 5.577 0-1.008-.15-3.179-1.483-5.466-1.545-2.656-3.772-3.891-4.664-4.327-.794.32-2.64 1.201-3.758 3.188-1.506 2.685-1.06 6.285 1.138 9.11-.818-.74-2.15-1.71-3.981-2.16-5.212-1.285-9.522 2.82-9.9 3.188a31.963 31.963 0 0 0 3.87 2.389 32.552 32.552 0 0 0 5.12 2.161 14.584 14.584 0 0 0-5.348.683 14.573 14.573 0 0 0-3.87 1.934 17.59 17.59 0 0 0 4.326 4.211c3.889 2.65 7.84 3.024 9.672 3.072a13.858 13.858 0 0 0-3.526 3.189c-3.236 4.153-3.076 8.94-2.96 10.477a15.128 15.128 0 0 0 4.437-.8 15.338 15.338 0 0 0 5.008-2.844 10.661 10.661 0 0 0-3.87 4.21 10.625 10.625 0 0 0-1.138 4.895c1.448-.034 4.698-.3 8.079-2.389a16.157 16.157 0 0 0 5.918-6.488c-.208 1.027-.44 2.931.228 5.122 1.167 3.828 4.218 5.698 5.008 6.15a8.913 8.913 0 0 0 2.615-2.962c1.429-2.626 1.066-5.195.91-6.033a10.03 10.03 0 0 0 2.732 4.328c2.388 2.204 5.134 2.544 6.03 2.616.31-1.289.61-3.242.344-5.577a16.182 16.182 0 0 0-2.504-6.945 10.46 10.46 0 0 0 5.347 1.367 10.482 10.482 0 0 0 5.691-1.822 7.151 7.151 0 0 0-1.254-2.733c-2.49-3.315-7.071-3.106-7.624-3.072.625-.219 2.417-.945 3.643-2.845 1.743-2.704.93-5.597.799-6.033-.364.45-.954 1.037-1.821 1.366-1.216.466-2.228.14-3.526 0-1.07-.116-2.61-.135-4.553.344.63-.01 3.366-.12 5.463-2.277a7.524 7.524 0 0 0 1.821-3.189 10.972 10.972 0 0 0-3.642-2.389 11 11 0 0 0-4.097-.795v-.004zM80.41 158.064c.267-1.23.31-.969-.145-1.953-1.85-4.017-6.137-5.272-9.295-8.403-3.433-3.406-1.656-6.178-4.567-11.068-1.516-2.544-4.431-5.883-10.655-8.427-1.526 1.168-2.16 2.423-2.436 3.15-1.235 3.228-.896 7.133 2.484 10.143-.654-.102-.61-.097-1.772-.596-2.16-.926-2.785-1.982-3.957-2.438-1.201-.465-3.75-.62-7.314 2.128-.087.678.325 2.384 1.022 4.065.228.548.988 2.321 2.742 3.349 2.106 1.235 3.598.194 6.8.814 1.976.383 2.59.62 3.714 1.357-1.007-.412-3.768-1.212-8.078.266-3.061 1.052-4.902 3.014-5.682 3.96.955.208 2.626.12 4.166.935 3.264 1.725 4.344 3.537 5.172 4.652 5.013 6.73 26.411 4.521 27.806-1.929l-.005-.005zM72.898 180.641a43.412 43.412 0 0 1-7.245-.712c-8.239-1.512-11.111-4.512-15.91-5.117-3.585-.451-8.758.368-15.625 6.11 4.097 4.493 6.804 5.035 8.524 4.691 2.533-.509 3.899-3.13 7.1-3.125 1.492 0 2.693.571 3.41.993-1.347.068-5.672.46-9.517 3.838-4.592 4.027-5.163 9.372-5.255 10.516 1.893.32 4.373.538 7.245.286a28.592 28.592 0 0 0 9.517-2.56c-.63.151-4.741 1.222-6.96 5.4-2.222 4.191-.794 8.208-.566 8.81a42.688 42.688 0 0 0 9.943-6.964c7.159-6.727 10.283-14.359 11.649-18.618 1.23-1.183 2.46-2.37 3.695-3.553l-.005.005zM105.247 219.535c.232-2.152-.218-4.003-.625-5.21-.412-1.216-1.38-4.056-3.957-5.732-2.398-1.56-3.87-.606-6.664-2.186-1.826-1.037-2.98-2.452-3.648-3.44a6.22 6.22 0 0 0-1.147 1.981c-.698 2.002-.306 3.213-.078 3.814-1.148-1.725-2.102-1.74-2.94-1.938-1.002-.238-2.809.189-3.971-.17-1.12-.344-1.235-1.706-1.235-1.706-.364.597-1.468 2.569-1.148 5.21.101.828.334 2.675 2.044 4.056 1.985 1.609 4.01.877 6.495 2.612 1.06.741 1.24 1.846 1.24 1.846-.882-.533-1.555-.795-3.425-.698-3.317.175-6.364 2.81-7.706 6.668 0 0 2.921-2.549 6.355-2.5 5.236.072 7.507 3.998 12.283 3.877 3.952-.102 7.696-2.506 8.127-6.484zM107.944 228.955c-.784.175-1.956.388-3.385.46-3.928.2-5.56-.862-7.817-.615-1.686.18-3.962 1.115-6.476 4.478 2.354 1.609 3.652 1.565 4.398 1.22 1.1-.503 1.443-1.85 2.906-2.194.683-.16 1.293-.03 1.666.087-.61.18-2.538.824-3.933 2.781-1.66 2.336-1.346 4.837-1.264 5.375a13.39 13.39 0 0 0 7.415-2.85c-.27.136-2.034 1.071-2.596 3.218-.561 2.156.523 3.833.693 4.085a20.057 20.057 0 0 0 3.792-4.255c2.543-3.843 3.148-7.67 3.308-9.764.436-.674.867-1.347 1.303-2.021l-.01-.005z"/>
        <path d="M109.872 216.743c.18 1.309.247 2.976-.087 4.856-.959 5.355-4.533 8.65-5.914 9.799.238.411.47.823.707 1.235 1.274-.988 4.524-3.78 6.001-8.655a17.232 17.232 0 0 0 .441-8.121c-.383.295-.765.586-1.148.882v.004z"/>
        <path d="M109.63 216.21c.804-.247 2.34-.586 4.107-.116 3.899 1.042 5.308 5.05 5.434 5.437-.74.136-2.988.446-5.4-.76-2.829-1.42-3.899-3.935-4.146-4.565l.005.004zM109.63 224.448a7.778 7.778 0 0 0-1.976.117c-1.971.368-3.323 1.41-3.991 2.016.484.16 1.506.426 2.736.15 1.972-.441 3.003-1.934 3.23-2.283zM110.124 224.07c.567.572 1.497 1.677 1.903 3.31.916 3.683-1.651 6.673-1.937 6.998a6.647 6.647 0 0 1-1.104-1.633c-1.783-3.77.736-8.01 1.138-8.675z"/>
    </g>
</svg>
