<svg width="16" height="16" viewBox="0 0 16 16" xmlns="http://www.w3.org/2000/svg">
  <path d="M11.685 2.12c.84 0 1.645.33 2.234.918a3.147 3.147 0 0 1 0 4.48L8 13.393 2.081 7.518a3.147 3.147 0 0 1 0-4.48 3.163 3.163 0 0 1 2.234-.918c.84 0 1.645.33 2.234.918L8 4.494 9.445 3.05a3.139 3.139 0 0 1 2.24-.93m0-1.12a4.311 4.311 0 0 0-3.05 1.254L8 2.882l-.634-.628a4.323 4.323 0 0 0-3.051-1.253 4.323 4.323 0 0 0-3.05 1.253 4.262 4.262 0 0 0 0 6.06L8 15l6.736-6.686a4.262 4.262 0 0 0 0-6.06A4.323 4.323 0 0 0 11.685 1z" fill="#FFFFFF" fill-rule="evenodd"/>
</svg>
