<svg width="151" height="150" viewBox="0 0 151 150" xmlns="http://www.w3.org/2000/svg">
  <g transform="translate(1.235 .818)" stroke="#9D968D" stroke-width=".938" fill="none" fill-rule="evenodd">
    <path d="M105.06 0H43.527L0 43.4v61.352l43.527 43.387h61.533l43.515-43.387V43.4z"/>
    <path d="M97.908 17.392H50.667L17.268 50.705v47.103l33.399 33.3h47.24l33.412-33.3V50.705z"/>
    <path d="M103.122 4.675H45.465L4.69 45.332v57.488l40.776 40.656h57.657l40.776-40.656V45.332z"/>
    <ellipse cx="74.287" cy="74.257" rx="10.266" ry="10.236"/>
    <path d="M113.488 75.877a7.575 7.575 0 0 0-4.639-5.323 7.541 7.541 0 0 0 3.264-6.047c.012-.848-.113-2.12.4-2.805-.813-.2-1.438-1.222-1.913-1.845a7.58 7.58 0 0 0-6.402-2.98 7.536 7.536 0 0 0 .512-6.845c-.325-.785-.963-1.895-.788-2.73-.825.15-1.813-.536-2.5-.91a7.61 7.61 0 0 0-7.065-.125 7.542 7.542 0 0 0-2.326-6.458c-.613-.574-1.65-1.334-1.826-2.17-.687.474-1.875.25-2.65.187a7.621 7.621 0 0 0-6.515 2.756 7.586 7.586 0 0 0-4.764-4.962c-.8-.275-2.051-.549-2.564-1.247-.437.71-1.613.985-2.35 1.247a7.581 7.581 0 0 0-4.827 5.149 7.638 7.638 0 0 0-6.377-2.606c-.85.075-2.101.324-2.851-.1-.113.836-1.063 1.559-1.638 2.082a7.552 7.552 0 0 0-2.301 6.67 7.598 7.598 0 0 0-6.877.213c-.738.411-1.788 1.147-2.639 1.06.238.797-.337 1.857-.65 2.568a7.563 7.563 0 0 0 .613 7.019 7.627 7.627 0 0 0-6.202 2.98c-.513.673-1.163 1.77-1.976 2.044.538.636.45 1.833.463 2.606a7.592 7.592 0 0 0 3.426 6.171 7.598 7.598 0 0 0-4.452 5.237c-.187.823-.337 2.094-.975 2.668.75.361 1.15 1.496 1.488 2.194a7.59 7.59 0 0 0 5.64 4.251 7.566 7.566 0 0 0-1.926 6.596c.162.835.55 2.044.2 2.83.838.025 1.663.898 2.25 1.409a7.581 7.581 0 0 0 6.89 1.583 7.57 7.57 0 0 0 .926 6.807c.487.699 1.338 1.646 1.338 2.506.775-.324 1.888.15 2.625.374a7.57 7.57 0 0 0 6.94-1.346 7.56 7.56 0 0 0 3.627 5.835c.725.436 1.888.96 2.238 1.745.575-.61 1.775-.636 2.55-.723a7.587 7.587 0 0 0 5.79-4.04 7.598 7.598 0 0 0 5.69 3.866c.837.1 2.125.112 2.763.685.288-.785 1.363-1.296 2.038-1.695a7.614 7.614 0 0 0 3.651-6.047 7.593 7.593 0 0 0 6.778 1.222c.812-.25 1.988-.76 2.8-.487-.062-.835.726-1.745 1.163-2.38a7.54 7.54 0 0 0 .863-6.995 7.602 7.602 0 0 0 6.69-1.633c.638-.549 1.5-1.496 2.363-1.584-.4-.735-.05-1.882.1-2.643a7.544 7.544 0 0 0-2.063-6.745 7.562 7.562 0 0 0 5.44-4.201c.362-.76.762-1.983 1.512-2.407-.662-.51-.812-1.695-.987-2.456l.012-.025z"/>
    <path d="M104.523 70.629a8.469 8.469 0 0 0-3.74-4.401 8.436 8.436 0 0 0 .701-5.499c-.2-.922-.663-2.281-.287-3.154-.938 0-1.876-.96-2.551-1.521a8.479 8.479 0 0 0-5.44-1.945 8.505 8.505 0 0 0-2.15-5.112c-.638-.698-1.713-1.645-1.826-2.593-.813.461-2.113.1-2.964-.05a8.507 8.507 0 0 0-5.689 1.023 8.486 8.486 0 0 0-4.426-3.354c-.9-.287-2.301-.574-2.889-1.334-.475.81-1.775 1.134-2.588 1.434a8.48 8.48 0 0 0-4.414 3.727 8.506 8.506 0 0 0-5.515-.698c-.925.2-2.288.661-3.163.287 0 .935-.963 1.87-1.526 2.543a8.423 8.423 0 0 0-1.95 5.424 8.524 8.524 0 0 0-5.127 2.144c-.7.636-1.65 1.708-2.6 1.82.462.81.1 2.107-.05 2.955a8.44 8.44 0 0 0 1.024 5.673 8.467 8.467 0 0 0-3.363 4.413c-.288.898-.575 2.294-1.338 2.88.813.474 1.138 1.77 1.438 2.581a8.469 8.469 0 0 0 3.739 4.401 8.436 8.436 0 0 0-.7 5.498c.2.923.662 2.282.287 3.155.938 0 1.876.96 2.55 1.52a8.479 8.479 0 0 0 5.44 1.946 8.474 8.474 0 0 0 2.15 5.111c.639.699 1.714 1.646 1.826 2.594.813-.462 2.114-.1 2.964.05a8.507 8.507 0 0 0 5.69-1.023 8.486 8.486 0 0 0 4.426 3.354c.9.287 2.3.573 2.888 1.334.475-.81 1.776-1.135 2.589-1.434a8.48 8.48 0 0 0 4.414-3.728 8.506 8.506 0 0 0 5.514.699c.925-.2 2.288-.661 3.164-.287 0-.935.962-1.87 1.525-2.544a8.423 8.423 0 0 0 1.95-5.423 8.556 8.556 0 0 0 5.127-2.144c.7-.636 1.651-1.708 2.601-1.82-.462-.811-.1-2.108.05-2.955a8.44 8.44 0 0 0-1.025-5.673 8.467 8.467 0 0 0 3.364-4.414c.287-.897.575-2.294 1.338-2.88-.813-.473-1.138-1.77-1.438-2.58z"/>
    <path d="M90.255 53.984a7.194 7.194 0 0 0-4.889-.399 7.182 7.182 0 0 0-2.888-3.727c-.676-.437-1.763-.973-2.076-1.72-.563.56-1.7.548-2.438.61a7.172 7.172 0 0 0-4.44 2.095 7.215 7.215 0 0 0-4.376-1.783c-.8-.038-2.013.037-2.663-.462-.213.761-1.2 1.322-1.813 1.746a7.17 7.17 0 0 0-2.801 4.027 7.238 7.238 0 0 0-4.677.636c-.713.361-1.725 1.035-2.538.922.2.773-.375 1.746-.688 2.42a7.135 7.135 0 0 0-.4 4.874 7.198 7.198 0 0 0-3.739 2.88c-.437.673-.975 1.758-1.725 2.07.562.56.55 1.695.612 2.43a7.133 7.133 0 0 0 2.101 4.427 7.171 7.171 0 0 0-1.788 4.363c-.038.798.037 2.008-.463 2.656.763.212 1.326 1.197 1.75 1.808a7.19 7.19 0 0 0 4.04 2.792 7.18 7.18 0 0 0 .637 4.663c.363.71 1.038 1.72.926 2.531.775-.2 1.75.374 2.426.686a7.194 7.194 0 0 0 4.889.399 7.182 7.182 0 0 0 2.888 3.728c.675.436 1.763.972 2.076 1.72.563-.56 1.7-.548 2.438-.61a7.172 7.172 0 0 0 4.44-2.095 7.215 7.215 0 0 0 4.376 1.783c.8.037 2.013-.038 2.663.46.213-.76 1.2-1.32 1.813-1.745a7.17 7.17 0 0 0 2.801-4.027c1.576.312 3.226.1 4.677-.636.712-.361 1.725-1.034 2.538-.922-.2-.773.375-1.746.688-2.419a7.135 7.135 0 0 0 .4-4.875 7.198 7.198 0 0 0 3.739-2.88c.437-.673.975-1.758 1.725-2.07-.562-.56-.55-1.695-.612-2.43a7.133 7.133 0 0 0-2.101-4.426 7.171 7.171 0 0 0 1.788-4.364c.037-.798-.038-2.007.463-2.656-.763-.212-1.326-1.196-1.751-1.807a7.19 7.19 0 0 0-4.039-2.793 7.18 7.18 0 0 0-.638-4.663c-.362-.71-1.037-1.72-.925-2.53-.775.199-1.75-.375-2.426-.687z"/>
    <path d="M92.419 78.57a5.2 5.2 0 0 0-2.176-4.214 5.168 5.168 0 0 0 2.226-4.04c.025-.573-.05-1.445.312-1.92-.55-.149-.963-.847-1.275-1.283a5.213 5.213 0 0 0-4.24-2.132 5.16 5.16 0 0 0-.574-4.576c-.325-.486-.888-1.147-.876-1.733-.537.212-1.288-.124-1.788-.287a5.243 5.243 0 0 0-4.689.761 5.21 5.21 0 0 0-3.163-3.366c-.55-.2-1.4-.4-1.738-.885-.313.486-1.113.648-1.626.822a5.192 5.192 0 0 0-3.339 3.367 5.198 5.198 0 0 0-4.539-.873c-.562.162-1.363.486-1.925.3.037.573-.513 1.184-.826 1.607a5.161 5.161 0 0 0-.712 4.676 5.22 5.22 0 0 0-4.19 1.957c-.362.449-.812 1.197-1.375 1.372.363.448.275 1.259.275 1.795a5.2 5.2 0 0 0 2.176 4.214 5.168 5.168 0 0 0-2.226 4.04c-.025.573.05 1.446-.312 1.92.55.149.963.847 1.275 1.284a5.213 5.213 0 0 0 4.24 2.132 5.2 5.2 0 0 0 .574 4.575c.325.486.888 1.147.876 1.733.537-.212 1.288.125 1.788.287a5.243 5.243 0 0 0 4.689-.76 5.21 5.21 0 0 0 3.163 3.366c.55.2 1.4.399 1.738.885.313-.486 1.113-.649 1.626-.823a5.192 5.192 0 0 0 3.339-3.366 5.198 5.198 0 0 0 4.539.872c.562-.162 1.363-.486 1.925-.299-.037-.573.513-1.184.826-1.608a5.161 5.161 0 0 0 .712-4.675 5.22 5.22 0 0 0 4.19-1.958c.362-.449.812-1.197 1.375-1.371-.363-.45-.275-1.26-.275-1.796z"/>
    <path d="M95.982 22.043H52.605L21.932 52.625v43.263l30.673 30.583h43.377l30.673-30.583V52.625z"/>
    <path d="M81.427 72.773c.8-.81 1-2.082.4-3.104-.6-1.023-1.813-1.472-2.913-1.172a2.578 2.578 0 0 0-1.688-2.631 2.568 2.568 0 0 0-2.976.972c-.663-.922-1.876-1.346-2.989-.935-1.112.412-1.763 1.521-1.663 2.656-1.1-.287-2.3.175-2.888 1.21a2.555 2.555 0 0 0 .438 3.091 2.574 2.574 0 0 0-1.438 2.78c.212 1.172 1.2 1.995 2.338 2.095a2.576 2.576 0 0 0 .688 3.055c.912.76 2.2.76 3.138.112a2.562 2.562 0 0 0 2.488 1.895c1.188 0 2.176-.835 2.476-1.933a2.582 2.582 0 0 0 3.139-.15 2.57 2.57 0 0 0 .65-3.054c1.138-.112 2.113-.947 2.313-2.12a2.558 2.558 0 0 0-1.475-2.755l-.038-.012zm-7.14 5.062a3.767 3.767 0 0 1-3.776-3.765 3.767 3.767 0 0 1 3.776-3.766 3.767 3.767 0 0 1 3.777 3.766 3.767 3.767 0 0 1-3.777 3.765zM66.547 40.744l1.663 4.775M81.04 40.557l-1.451 5.61M94.357 46.255l-2.689 3.503M104.185 56.877l-3.126 1.521M108.849 70.554l-4.326.075M107.524 84.941l-5.265-1.733M100.446 97.546l-4.851-4.576M88.83 106.198l-2.263-4.662M74.775 105.351l-.075 4.039M62.333 102.171l-1.85 4.401M48.641 98.232l4.314-4.164M41.239 85.814l6.014-2.107M39.526 71.464l4.626.411M43.827 57.662l3.001 1.559M53.38 46.803l2.651 3.167M61.871 54.371l3.051 3.865M73.512 50.843l.613 4.363M85.354 53.585l-2.264 4.601M94.244 61.876l-4.977 3.491M97.783 73.471l-6.827.287M95.019 85.29l-5.051-2.368M86.717 94.142l-2.164-4.214M74.738 93.145l.337 4.526M63.234 94.928l2.1-4.638M54.343 86.637l4.964-3.503M50.805 75.03h6.564M53.568 63.223l4.952 2.431M69.586 68.559l2.488 2.469M74.237 66.838l.05 3.466M78.914 68.509l-2.163 2.73M81.427 72.773l-3.476.411M80.59 77.648l-2.989-1.783M76.813 80.852l-.963-3.354M71.849 80.889l.863-3.391M68.023 77.735l2.938-1.87M67.135 72.86l3.426.611M69.461 59.096l1.925 5.336M79.314 59.158l-1.713 5.411M87.254 64.993l-4.639 3.267M90.243 74.356l-5.69-.099M87.142 83.682l-4.389-3.64M79.127 89.405l-1.288-5.548M69.261 89.355l1.488-5.498M61.333 83.52l4.502-3.478M58.345 74.157l5.689.1M61.446 64.819l4.701 3.216"/>
  </g>
</svg>
