<svg width="16" height="16" viewBox="0 0 16 16" xmlns="http://www.w3.org/2000/svg">
  <path d="M1.523 7.028c-.078 2.955 2.27 5.3 5.224 5.222a5.594 5.594 0 0 0 3.35-1.248l2.819 2.818c.24.24.64.23.894-.023.252-.253.263-.654.023-.894l-2.82-2.819a5.593 5.593 0 0 0 1.237-3.337c.078-2.955-2.267-5.3-5.222-5.223C4.074 1.6 1.6 4.074 1.523 7.028zm5.472-4.24c2.271-.06 4.05 1.72 3.991 3.992-.06 2.271-1.934 4.146-4.206 4.206-2.271.06-4.053-1.72-3.993-3.991.06-2.271 1.936-4.148 4.208-4.207z" fill="#696158" fill-rule="nonzero"/>
</svg>
